<mxfile host="65bd71144e">
    <diagram id="OjqeoiB_EeZA7hE7RbzX" name="Page-1">
        <mxGraphModel dx="718" dy="516" grid="1" gridSize="10" guides="1" tooltips="1" connect="1" arrows="1" fold="1" page="1" pageScale="1" pageWidth="850" pageHeight="1400" math="0" shadow="0">
            <root>
                <mxCell id="0"/>
                <mxCell id="1" parent="0"/>
                <mxCell id="2" value="" style="rounded=1;whiteSpace=wrap;html=1;fontStyle=1" parent="1" vertex="1">
                    <mxGeometry x="60" y="20" width="710" height="380" as="geometry"/>
                </mxCell>
                <mxCell id="3" value="Zoro MapBox" style="text;html=1;align=center;verticalAlign=middle;resizable=0;points=[];autosize=1;strokeColor=none;fillColor=none;" vertex="1" parent="1">
                    <mxGeometry x="350" y="415" width="100" height="30" as="geometry"/>
                </mxCell>
                <mxCell id="4" value="ZORO" style="ellipse;whiteSpace=wrap;html=1;" vertex="1" parent="1">
                    <mxGeometry x="320" y="120" width="50" height="50" as="geometry"/>
                </mxCell>
                <mxCell id="5" value="Information" style="rounded=1;whiteSpace=wrap;html=1;" vertex="1" parent="1">
                    <mxGeometry x="380" y="140" width="140" height="160" as="geometry"/>
                </mxCell>
                <mxCell id="6" value="Zoro popup" style="text;html=1;align=center;verticalAlign=middle;resizable=0;points=[];autosize=1;strokeColor=none;fillColor=none;" vertex="1" parent="1">
                    <mxGeometry x="410" y="140" width="80" height="30" as="geometry"/>
                </mxCell>
                <mxCell id="7" value="Note" style="whiteSpace=wrap;html=1;" vertex="1" parent="1">
                    <mxGeometry x="620" y="40" width="120" height="60" as="geometry"/>
                </mxCell>
                <mxCell id="8" value="ZORO" style="ellipse;whiteSpace=wrap;html=1;" vertex="1" parent="1">
                    <mxGeometry x="220" y="250" width="50" height="50" as="geometry"/>
                </mxCell>
                <mxCell id="9" value="ZORO" style="ellipse;whiteSpace=wrap;html=1;" vertex="1" parent="1">
                    <mxGeometry x="630" y="220" width="50" height="50" as="geometry"/>
                </mxCell>
                <mxCell id="10" value="ZORO" style="ellipse;whiteSpace=wrap;html=1;" vertex="1" parent="1">
                    <mxGeometry x="520" y="50" width="50" height="50" as="geometry"/>
                </mxCell>
                <mxCell id="11" value="create mapbox" style="rounded=1;whiteSpace=wrap;html=1;" vertex="1" parent="1">
                    <mxGeometry x="170" y="570" width="120" height="60" as="geometry"/>
                </mxCell>
                <mxCell id="14" value="get token" style="rounded=1;whiteSpace=wrap;html=1;" vertex="1" parent="1">
                    <mxGeometry x="170" y="460" width="120" height="60" as="geometry"/>
                </mxCell>
                <mxCell id="15" value="" style="edgeStyle=none;orthogonalLoop=1;jettySize=auto;html=1;entryX=0.5;entryY=0;entryDx=0;entryDy=0;exitX=0.5;exitY=1;exitDx=0;exitDy=0;" edge="1" parent="1" source="14" target="11">
                    <mxGeometry width="100" relative="1" as="geometry">
                        <mxPoint x="340" y="560" as="sourcePoint"/>
                        <mxPoint x="420" y="640" as="targetPoint"/>
                        <Array as="points"/>
                    </mxGeometry>
                </mxCell>
            </root>
        </mxGraphModel>
    </diagram>
</mxfile>